<svg xmlns="http://www.w3.org/2000/svg" viewBox="0 0 32 32" fill="currentColor"><circle cx="16" cy="16" r="16" fill="#222"/><path d="M16 7c-5 0-9 4-9 9 0 4 2.7 7.3 6.5 8.5 0.5 0.1 0.7-0.2 0.7-0.5v-1.7c-2.7 0.6-3.3-1.3-3.3-1.3-0.5-1.2-1.2-1.5-1.2-1.5-1-0.7 0.1-0.7 0.1-0.7 1.1 0.1 1.7 1.1 1.7 1.1 1 1.7 2.7 1.2 3.3 0.9 0.1-0.7 0.4-1.2 0.7-1.5-2.2-0.2-4.5-1.1-4.5-4.7 0-1 0.4-1.8 1-2.5-0.1-0.2-0.4-1.2 0.1-2.5 0 0 0.8-0.3 2.6 1 0.8-0.2 1.7-0.3 2.5-0.3s1.7 0.1 2.5 0.3c1.8-1.3 2.6-1 2.6-1 0.5 1.3 0.2 2.3 0.1 2.5 0.6 0.7 1 1.5 1 2.5 0 3.6-2.3 4.5-4.5 4.7 0.4 0.3 0.7 1 0.7 2v3c0 0.3 0.2 0.6 0.7 0.5 3.8-1.2 6.5-4.5 6.5-8.5 0-5-4-9-9-9z" fill="#fff"/></svg>
